<?xml version="1.0" standalone="no"?>
<!DOCTYPE svg PUBLIC "-//W3C//DTD SVG 20010904//EN"
 "http://www.w3.org/TR/2001/REC-SVG-20010904/DTD/svg10.dtd">
<svg version="1.0" xmlns="http://www.w3.org/2000/svg"
 width="1024.000000pt" height="1024.000000pt" viewBox="0 0 1024.000000 1024.000000"
 preserveAspectRatio="xMidYMid meet">

<g transform="translate(0.000000,1024.000000) scale(0.100000,-0.100000)"
fill="#000000" stroke="none">
<path d="M2215 6661 c-563 -102 -999 -539 -1102 -1104 -24 -130 -23 -381 1
-507 107 -551 523 -971 1076 -1087 65 -14 129 -18 270 -17 189 0 292 15 435
60 86 27 287 131 360 186 296 224 496 542 549 874 20 129 21 363 1 478 -95
541 -504 978 -1035 1103 -146 34 -409 41 -555 14z m537 -234 c183 -48 345
-140 488 -274 378 -355 477 -918 242 -1376 -312 -612 -1095 -815 -1666 -433
-155 104 -313 287 -395 458 -153 322 -149 712 10 1031 112 225 321 432 533
527 172 77 300 100 521 96 144 -3 185 -7 267 -29z"/>
<path d="M2320 5656 l0 -144 198 -4 c216 -3 229 -6 292 -70 97 -96 90 -259
-14 -345 -56 -46 -95 -53 -287 -53 l-173 0 -185 -185 -186 -185 350 0 c396 0
439 5 564 67 141 70 261 217 295 363 25 103 21 244 -8 330 -55 163 -179 288
-343 346 -64 22 -82 24 -285 24 l-218 0 0 -144z"/>
<path d="M4217 6223 c-4 -3 -7 -264 -7 -580 l0 -573 90 0 90 0 0 52 0 52 33
-31 c66 -63 110 -78 232 -78 98 0 116 3 166 26 145 68 229 210 229 389 0 241
-164 420 -385 420 -81 0 -143 -20 -205 -64 l-50 -36 0 215 0 215 -93 0 c-52 0
-97 -3 -100 -7z m498 -522 c54 -24 101 -80 120 -143 19 -65 19 -91 -1 -157
-31 -107 -120 -167 -233 -159 -119 8 -192 98 -193 235 -1 106 42 183 127 227
41 21 130 20 180 -3z"/>
<path d="M6382 5890 c-48 -11 -111 -56 -135 -98 l-22 -37 -3 68 c-2 57 -6 68
-18 63 -9 -3 -54 -6 -100 -6 l-84 0 2 -402 3 -403 100 0 100 0 5 240 c4 162
10 250 18 270 33 75 101 115 197 115 l65 0 0 100 0 100 -47 -1 c-27 -1 -63 -5
-81 -9z"/>
<path d="M6803 5889 c-51 -9 -123 -40 -163 -69 -30 -21 -30 -23 -30 -117 l0
-95 33 21 c116 76 159 94 237 99 63 4 83 1 117 -16 42 -22 73 -70 73 -115 l0
-25 -142 -5 c-174 -6 -239 -23 -305 -81 -59 -52 -82 -104 -83 -184 0 -155 102
-242 284 -242 89 0 152 22 213 74 l32 27 6 -46 7 -45 90 0 90 0 -4 308 c-3
271 -6 312 -22 347 -39 84 -101 136 -193 160 -61 16 -171 18 -240 4z m267
-501 c0 -60 -26 -105 -79 -136 -39 -23 -58 -27 -119 -27 -70 0 -75 1 -103 33
-18 20 -29 43 -29 61 0 34 33 79 69 93 27 11 226 27 249 20 7 -3 12 -21 12
-44z"/>
<path d="M8436 5889 c-64 -15 -155 -70 -201 -121 -206 -230 -116 -601 167
-690 72 -22 212 -24 279 -4 113 34 205 110 253 208 119 244 -9 535 -268 604
-57 15 -171 17 -230 3z m192 -185 c148 -62 190 -281 75 -399 -45 -47 -88 -65
-153 -65 -93 0 -156 40 -196 125 -43 92 -26 215 39 284 63 66 156 88 235 55z"/>
<path d="M5144 5876 c-3 -8 -4 -149 -2 -313 l3 -298 29 -58 c48 -98 148 -152
281 -150 79 1 121 16 189 68 l46 35 0 -45 0 -46 97 3 96 3 -2 404 -1 404 -94
1 -95 1 -3 -265 c-3 -253 -4 -267 -25 -300 -31 -50 -88 -80 -153 -80 -65 0
-110 21 -135 63 -18 29 -20 55 -23 305 l-3 272 -72 1 c-40 0 -84 3 -100 5 -18
3 -29 0 -33 -10z"/>
<path d="M7300 5874 c0 -10 210 -564 273 -719 l32 -80 104 -3 c57 -1 108 1
114 7 7 7 299 744 314 791 3 13 -12 15 -103 13 -58 -1 -110 -5 -114 -10 -8 -9
-175 -482 -186 -525 -12 -54 -4 -74 -140 315 l-77 217 -46 0 c-25 1 -74 2
-109 3 -39 1 -62 -2 -62 -9z"/>
<path d="M4512 4889 c-72 -21 -132 -113 -132 -203 l0 -36 -52 0 -53 0 -1 -70
-1 -70 53 0 54 0 0 -245 0 -245 80 0 80 0 0 245 0 245 80 0 80 0 0 70 0 70
-80 0 -80 0 0 31 c0 20 10 40 29 60 25 24 37 29 80 29 l51 0 0 65 0 65 -77 -1
c-43 0 -93 -5 -111 -10z"/>
<path d="M5712 4644 c-18 -9 -41 -27 -51 -40 -25 -32 -31 -30 -31 11 l0 35
-77 0 -78 0 3 -315 3 -315 79 0 79 0 3 216 3 216 33 29 c27 24 41 29 87 29
108 0 126 -48 124 -320 l-1 -165 81 -3 81 -3 0 218 c0 120 -5 236 -10 257 -12
55 -58 115 -105 140 -54 28 -176 34 -223 10z"/>
<path d="M4770 4435 c0 -118 5 -237 11 -265 33 -155 233 -212 372 -106 l37 28
0 -36 0 -36 80 0 80 0 0 315 0 315 -85 0 -85 0 0 -200 c0 -222 -5 -247 -60
-275 -33 -17 -102 -20 -131 -5 -43 24 -49 57 -49 275 l0 205 -85 0 -85 0 0
-215z"/>
<path d="M4058 4180 c-28 -28 -30 -36 -25 -78 6 -57 33 -82 89 -82 54 0 98 43
98 95 0 27 -8 44 -29 66 -41 41 -91 40 -133 -1z"/>
</g>
</svg>
